<svg width="992" height="302" fill="none" xmlns="http://www.w3.org/2000/svg"><g clip-path="url(#clip0)"><path d="M41.467 187.593l-25.335-9.335a1.496 1.496 0 00-1.926.888l-9.335 25.335a1.5 1.5 0 00.889 1.926l25.335 9.336a1.501 1.501 0 001.926-.889l9.335-25.335a1.5 1.5 0 00-.889-1.926zm-10.743 24.816l-22.52-8.298 8.298-22.52 22.52 8.298-8.298 22.52z" fill="#0285E4"/></g><path d="M147.613 7.7V0h-7.933v2.75h-18.133V0h-7.934v7.7h2.834v17.6h-2.834V33h7.934v-2.75h18.133V33h7.933v-7.7h-2.833V7.7h2.833zm-5.666-5.5h3.4v3.3h-3.4V2.2zM115.88 5.5V2.2h3.4v3.3h-3.4zm3.4 25.3h-3.4v-3.3h3.4v3.3zm26.067-3.3v3.3h-3.4v-3.3h3.4zm-2.834-4.4v2.2h-2.833v2.75h-18.133V25.3h-2.834V7.7h2.834V4.95h18.133V7.7h2.833v15.4z" fill="#F3CD03"/><path d="M129.458 10.891l-3.793 9.61h2.117l.731-1.853h4.201l.731 1.852h2.117l-3.793-9.609h-2.311zm-.169 5.788l1.324-3.353 1.324 3.353h-2.648z" fill="#F3CD03"/><path d="M872.31 87.812l3.66-55.909 45.82 32.245-49.48 23.664zm44.24-24.136L878.288 36.75l-3.056 46.687 41.318-19.761z" fill="#112D57"/><g clip-path="url(#clip1)"><path d="M964.999 241.657l7.368-2.404 1.602 4.912-7.368 2.404 2.403 7.367-4.912 1.603-2.403-7.368-7.368 2.403-1.602-4.912 7.368-2.403-2.403-7.368 4.912-1.602 2.403 7.368zm3.9 28.618l-2.404-7.368 4.912-1.603 4.006 12.28-39.296 12.818-10.414-31.928 19.648-6.409 1.602 4.912-14.736 4.807 7.21 22.103 29.472-9.612z" fill="#0285E4"/></g><circle cx="685.113" cy="204.5" r="28" stroke="#F3CD03" stroke-width="5"/><defs><clipPath id="clip0"><path fill="#fff" transform="rotate(20.227 -480.95 123.235)" d="M0 0h36v36H0z"/></clipPath><clipPath id="clip1"><path fill="#fff" transform="rotate(-18.065 1218.386 -2752.31)" d="M0 0h62v62H0z"/></clipPath></defs></svg>