<svg width="481" height="184" fill="none" xmlns="http://www.w3.org/2000/svg"><g clip-path="url(#clip0)"><path d="M19.87 90.985L7.582 86.457a.728.728 0 00-.934.431L2.12 99.176a.728.728 0 00.431.934l12.288 4.528a.726.726 0 00.934-.431l4.528-12.288a.728.728 0 00-.431-.934zm-5.21 12.036L3.736 98.997 7.76 88.074 18.684 92.1l-4.025 10.922z" fill="#0285E4"/></g><path d="M71 3.733V0h-3.733v1.333h-8.534V0H55v3.733h1.333v8.534H55V16h3.733v-1.333h8.534V16H71v-3.733h-1.333V3.733H71zm-2.667-2.666h1.6v1.6h-1.6v-1.6zm-12.266 1.6v-1.6h1.6v1.6h-1.6zm1.6 12.266h-1.6v-1.6h1.6v1.6zm12.266-1.6v1.6h-1.6v-1.6h1.6zM68.6 11.2v1.067h-1.333V13.6h-8.534v-1.333H57.4V3.733h1.333V2.4h8.534v1.333H68.6V11.2z" fill="#112D57"/><path d="M62.422 5.446l-1.896 4.804h1.058l.366-.926h2.1l.366.926h1.059l-1.897-4.804h-1.156zm-.084 2.894L63 6.663l.662 1.677h-1.324zm360.501 34.25l1.776-27.117 22.223 15.64-23.999 11.477zm21.457-11.706l-18.557-13.06-1.483 22.644 20.04-9.584z" fill="#F3CD03"/><g clip-path="url(#clip1)"><path d="M467.795 117.207l3.573-1.166.777 2.382-3.573 1.166 1.165 3.574-2.382.777-1.166-3.574-3.573 1.166-.777-2.383 3.573-1.165-1.165-3.574 2.382-.777 1.166 3.574zm1.891 13.88l-1.165-3.574 2.382-.777 1.943 5.956-19.059 6.217-5.051-15.486 9.529-3.108.777 2.382-7.147 2.331 3.497 10.721 14.294-4.662z" fill="#0285E4"/></g><circle cx="332" cy="169" r="12.5" stroke="#F3CD03" stroke-width="5"/><defs><clipPath id="clip0"><path fill="#fff" transform="rotate(20.227 -233.388 59.09)" d="M0 0h17.46v17.46H0z"/></clipPath><clipPath id="clip1"><path fill="#fff" transform="rotate(-18.065 590.813 -1334.143)" d="M0 0h30.071v30.071H0z"/></clipPath></defs></svg>