<svg width="52" height="51" viewBox="0 0 52 51" fill="none" xmlns="http://www.w3.org/2000/svg">
<path d="M44.0928 5.50659H7.90639C7.03615 5.50659 6.33307 6.20967 6.33307 7.07991V43.2663C6.33307 44.1365 7.03615 44.8396 7.90639 44.8396H44.0928C44.963 44.8396 45.6661 44.1365 45.6661 43.2663V7.07991C45.6661 6.20967 44.963 5.50659 44.0928 5.50659ZM39.5498 16.9869H36.4081C33.9448 16.9869 33.4679 18.1571 33.4679 19.8779V23.6686H39.3482L38.5812 29.603H33.4679V44.8396H27.3369V29.6079H22.2089V23.6686H27.3369V19.2928C27.3369 14.2139 30.4393 11.4459 34.9724 11.4459C37.1456 11.4459 39.009 11.6081 39.5547 11.6819V16.9869H39.5498Z" fill="white"/>
</svg>
