<svg width="51" height="51" viewBox="0 0 51 51" fill="none" xmlns="http://www.w3.org/2000/svg">
<path d="M43.9211 5.50659H7.73476C6.86452 5.50659 6.16144 6.20967 6.16144 7.07991V43.2663C6.16144 44.1365 6.86452 44.8396 7.73476 44.8396H43.9211C44.7914 44.8396 45.4945 44.1365 45.4945 43.2663V7.07991C45.4945 6.20967 44.7914 5.50659 43.9211 5.50659ZM17.8286 39.0232H11.9926V20.2516H17.8286V39.0232ZM14.913 17.6851C14.244 17.6851 13.59 17.4867 13.0337 17.115C12.4775 16.7433 12.0439 16.215 11.7879 15.5969C11.5319 14.9788 11.4649 14.2987 11.5954 13.6425C11.7259 12.9863 12.0481 12.3836 12.5211 11.9106C12.9942 11.4375 13.5969 11.1153 14.2531 10.9848C14.9093 10.8543 15.5894 10.9213 16.2075 11.1773C16.8256 11.4333 17.3539 11.8669 17.7256 12.4231C18.0973 12.9794 18.2957 13.6334 18.2957 14.3024C18.2908 16.1708 16.7764 17.6851 14.913 17.6851ZM39.6781 39.0232H33.847V29.8931C33.847 27.715 33.8076 24.9174 30.8134 24.9174C27.7798 24.9174 27.3128 27.2872 27.3128 29.7357V39.0232H21.4866V20.2516H27.0817V22.818H27.1604C27.9372 21.343 29.8399 19.7845 32.6817 19.7845C38.5915 19.7845 39.6781 23.6735 39.6781 28.7278V39.0232Z" fill="white"/>
</svg>
