<svg width="16" height="16" viewBox="0 0 16 16" fill="none" xmlns="http://www.w3.org/2000/svg">
<path d="M16 3.73333V0H12.2667V1.33333H3.73333V0H0V3.73333H1.33333V12.2667H0V16H3.73333V14.6667H12.2667V16H16V12.2667H14.6667V3.73333H16ZM13.3333 1.06667H14.9333V2.66667H13.3333V1.06667ZM1.06667 2.66667V1.06667H2.66667V2.66667H1.06667ZM2.66667 14.9333H1.06667V13.3333H2.66667V14.9333ZM14.9333 13.3333V14.9333H13.3333V13.3333H14.9333ZM13.6 11.2V12.2667H12.2667V13.6H3.73333V12.2667H2.4V3.73333H3.73333V2.4H12.2667V3.73333H13.6V11.2Z" fill="#112D57"/>
</svg>
