<svg width="42" height="34" viewBox="0 0 42 34" fill="none" xmlns="http://www.w3.org/2000/svg">
<path d="M41.6279 4.503C40.1234 5.152 38.4862 5.61908 36.7998 5.80099C38.5506 4.76081 39.8618 3.1175 40.4872 1.17936C38.8442 2.15674 37.0444 2.84209 35.1674 3.20501C34.383 2.36637 33.4342 1.69826 32.3802 1.24233C31.3262 0.786403 30.1897 0.552415 29.0413 0.554952C24.3951 0.554952 20.6585 4.32109 20.6585 8.94272C20.6585 9.59171 20.7371 10.2407 20.865 10.8651C13.9079 10.5013 7.70316 7.17765 3.57811 2.08894C2.82648 3.37275 2.4326 4.83451 2.43745 6.32215C2.43745 9.2328 3.91735 11.7993 6.17408 13.3087C4.84416 13.2563 3.54537 12.8908 2.38337 12.2418V12.345C2.38337 16.4209 5.26451 19.7986 9.10439 20.5755C8.38341 20.7627 7.64173 20.8585 6.89683 20.8606C6.35108 20.8606 5.83484 20.8065 5.31367 20.7328C6.37567 24.0564 9.46822 26.4705 13.1508 26.5492C10.2696 28.8059 6.66083 30.1334 2.74228 30.1334C2.0392 30.1334 1.39021 30.1088 0.716629 30.0301C4.4336 32.4147 8.84381 33.7914 13.5933 33.7914C29.0118 33.7914 37.4487 21.018 37.4487 9.93096C37.4487 9.56713 37.4487 9.2033 37.4242 8.83947C39.0565 7.64473 40.4872 6.16482 41.6279 4.503Z" fill="white"/>
</svg>
