<svg width="51" height="51" fill="none" xmlns="http://www.w3.org/2000/svg"><path d="M43.921 5.507H7.735c-.87 0-1.574.703-1.574 1.573v36.186c0 .87.704 1.574 1.574 1.574H43.92c.87 0 1.574-.704 1.574-1.574V7.08c0-.87-.704-1.573-1.574-1.573zM17.83 39.023h-5.836V20.252h5.836v18.771zm-2.916-21.338a3.383 3.383 0 113.383-3.383 3.389 3.389 0 01-3.383 3.383zm24.765 21.338h-5.831v-9.13c0-2.178-.04-4.976-3.034-4.976-3.033 0-3.5 2.37-3.5 4.819v9.287h-5.826V20.252h5.595v2.566h.078c.777-1.475 2.68-3.034 5.522-3.034 5.91 0 6.996 3.89 6.996 8.944v10.295z" fill="#fff"/></svg>