<svg width="88" height="101" fill="none" xmlns="http://www.w3.org/2000/svg"><path d="M39.855 1.663C41.8.533 44.963.515 46.917 1.622l37.547 21.231C86.43 23.958 88 26.688 88 28.941v42.864c0 2.256-1.583 4.988-3.536 6.115L46.91 99.37c-1.95 1.117-5.107 1.099-7.042-.04L3.508 77.943C1.571 76.804 0 74.05 0 71.804V28.942c0-2.257 1.571-5.003 3.518-6.131L39.855 1.663zm-15.203 39.42c-3.131 0-6.264.027-9.395.027v20.013h3.757v-5.889h5.638c9.764 0 9.735-14.151 0-14.151zm27.527 19.783l-6.036-6.833c7.268-1.481 6.836-12.868-2.135-12.923-3.16 0-6.32-.027-9.48-.027v20.04h3.758v-6.69h3.616l5.807 6.69h4.47v-.257zm-8.17-16.239c4.585 0 4.57 6.404 0 6.404h-5.721v-6.404h5.722zm-18.77-.315c4.16 0 4.147 7.664 0 7.664h-6.347v-7.662l6.347-.002zm37.842-3.6c-13.447 0-13.946 20.87 0 20.87 13.648-.002 13.634-20.87 0-20.87zm0 3.43c8.666 0 8.8 13.978 0 13.978s-8.727-13.978 0-13.978z" fill="#F3CD03"/></svg>