<svg width="42" height="34" fill="none" xmlns="http://www.w3.org/2000/svg"><path d="M41.628 4.503c-1.505.649-3.142 1.116-4.828 1.298a8.363 8.363 0 003.687-4.622 16.55 16.55 0 01-5.32 2.026 8.362 8.362 0 00-6.126-2.65c-4.646 0-8.383 3.766-8.383 8.388 0 .649.08 1.298.207 1.922A23.825 23.825 0 013.578 2.09a8.325 8.325 0 00-1.14 4.233c0 2.91 1.48 5.477 3.736 6.987a8.457 8.457 0 01-3.79-1.067v.103a8.386 8.386 0 006.72 8.23 8.884 8.884 0 01-2.207.286 11.16 11.16 0 01-1.583-.128 8.399 8.399 0 007.837 5.816 16.803 16.803 0 01-10.409 3.584c-.703 0-1.352-.024-2.025-.103a23.74 23.74 0 0012.876 3.761c15.419 0 23.856-12.773 23.856-23.86 0-.364 0-.728-.025-1.092a18.058 18.058 0 004.204-4.336z" fill="#fff"/></svg>