<svg width="992" height="302" viewBox="0 0 992 302" fill="none" xmlns="http://www.w3.org/2000/svg">
<g clip-path="url(#clip0)">
<path d="M41.467 187.593L16.1321 178.258C15.7588 178.12 15.3462 178.136 14.985 178.303C14.6238 178.47 14.3436 178.773 14.206 179.146L4.87085 204.481C4.7333 204.855 4.74968 205.267 4.91637 205.628C5.08307 205.99 5.38643 206.27 5.75972 206.407L31.0946 215.743C31.4679 215.88 31.8805 215.864 32.2417 215.697C32.6029 215.53 32.8831 215.227 33.0207 214.854L42.3559 189.519C42.4934 189.146 42.477 188.733 42.3103 188.372C42.1436 188.01 41.8403 187.73 41.467 187.593ZM30.7243 212.409L8.20445 204.111L16.5024 181.591L39.0222 189.889L30.7243 212.409Z" fill="#0285E4"/>
</g>
<path d="M147.613 7.7V0H139.68V2.75H121.547V0H113.613V7.7H116.447V25.3H113.613V33H121.547V30.25H139.68V33H147.613V25.3H144.78V7.7H147.613ZM141.947 2.2H145.347V5.5H141.947V2.2ZM115.88 5.5V2.2H119.28V5.5H115.88ZM119.28 30.8H115.88V27.5H119.28V30.8ZM145.347 27.5V30.8H141.947V27.5H145.347ZM142.513 23.1V25.3H139.68V28.05H121.547V25.3H118.713V7.7H121.547V4.95H139.68V7.7H142.513V23.1Z" fill="#F3CD03"/>
<path d="M129.458 10.8911L125.665 20.5001H127.782L128.513 18.6481H132.714L133.445 20.5001H135.562L131.769 10.8911H129.458ZM129.289 16.6791L130.613 13.3261L131.937 16.6791H129.289Z" fill="#F3CD03"/>
<path d="M872.31 87.8118L875.97 31.9031L921.79 64.1478L872.31 87.8118ZM916.55 63.676L878.288 36.7501L875.232 83.4366L916.55 63.676Z" fill="#112D57"/>
<g clip-path="url(#clip1)">
<path d="M964.999 241.657L972.367 239.253L973.969 244.165L966.601 246.569L969.004 253.936L964.092 255.539L961.689 248.171L954.321 250.574L952.719 245.662L960.087 243.259L957.684 235.891L962.596 234.289L964.999 241.657ZM968.899 270.275L966.495 262.907L971.407 261.304L975.413 273.584L936.117 286.402L925.703 254.474L945.351 248.065L946.953 252.977L932.217 257.784L939.427 279.887L968.899 270.275Z" fill="#0285E4"/>
</g>
<circle cx="685.113" cy="204.5" r="28" stroke="#F3CD03" stroke-width="5"/>
<defs>
<clipPath id="clip0">
<rect width="36" height="36" fill="white" transform="translate(12.9469 173.887) rotate(20.2274)"/>
</clipPath>
<clipPath id="clip1">
<rect width="62" height="62" fill="white" transform="translate(913.529 242.141) rotate(-18.0648)"/>
</clipPath>
</defs>
</svg>
